<?xml version="1.0" standalone="no"?>
<!DOCTYPE svg PUBLIC "-//W3C//DTD SVG 1.1//EN" "http://www.w3.org/Graphics/SVG/1.1/DTD/svg11.dtd">
<svg xmlns="http://www.w3.org/2000/svg">
<defs >
<font id="BeVietnam" horiz-adv-x="580" ><font-face
    font-family="Be Vietnam"
    units-per-em="1000"
    panose-1="0 0 5 0 0 0 0 0 0 0"
    ascent="1196"
    descent="-265"
    alphabetic="0" />
<glyph unicode=" " glyph-name="space" horiz-adv-x="230" />
<glyph unicode="!" glyph-name="exclam" horiz-adv-x="244" d="M180 633L199 753H293L273 633L183 184H124L180 633ZM101 -9T88 4T75 37Q75 63 95 82T140 102Q161 102 174 89T187 56Q187 31 167 11T121 -9Q101 -9 88 4Z" />
<glyph unicode="&quot;" glyph-name="quotedbl" horiz-adv-x="562" d="M300 708Q264 694 245 671T226 617Q226 602 233 598T254 593Q276 593 286 583T297 557Q297 527 277 508T225 488Q165 488 165 542Q165 550 167 562L173 598Q184 658 219 693T306 744L300 708ZM502
708Q466 694 447 671T428 617Q428 602 435 598T456 593Q478 593 488 583T499 557Q499 527 479 508T427 488Q368 488 368 541Q368 550 370 562L376 598Q386 658 422 693T508 744L502 708Z" />
<glyph unicode="#" glyph-name="numbersign" horiz-adv-x="878" d="M703 438L632 254H798L773 189H607L534 0H461L463 12L531 189H348L275 0H202L204 12L272 189H114L139 254H297L368 438H197L223 504H394L469 700H543L541 688L470 504H653L729 700H802L800 688L729
504H882L856 438H703ZM628 438H444L373 254H557L628 438Z" />
<glyph unicode="$" glyph-name="dollar" horiz-adv-x="567" d="M516 479Q518 528 498 571T413 622L372 385L406 378Q477 363 521 328T566 229Q566 166 532 113T438 27T306 -8L294 -78H255L267 -7Q205 -1 163 29T101 102T80 196Q80 205 82 223H170Q166 172 192
126T280 70L322 315L296 319Q259 328 229 340T172 382T144 465Q144 526 175 576T262 658T386 694L397 759H436L425 695Q515 690 558 638T602 507Q602 488 601 479H516ZM335 392L374 622Q314 616 273 577T231 485Q231 450 255 426T311 397L335 392ZM359 308L319
68Q364 70 401 89T459 141T480 211Q480 250 453 273T387 303L359 308Z" />
<glyph unicode="%" glyph-name="percent" horiz-adv-x="826" d="M181 421T154 453T126 534Q126 583 147 623T205 686T288 710Q346 710 372 679T399 601Q399 550 379 509T322 445T239 421Q181 421 154 453ZM675 700H751L271 0H195L675 700ZM290 472T313 509T337
599Q337 625 325 642T281 660Q239 660 216 623T192 535Q192 508 204 490T248 472Q290 472 313 509ZM602 -10T575 22T547 103Q547 152 568 192T626 255T709 279Q767 279 793 248T820 169Q820 119 800 78T743 14T660 -10Q602 -10 575 22ZM710 41T734 77T758 168Q758
194 746 211T702 229Q661 229 637 192T613 103Q613 77 625 59T669 41Q710 41 734 77Z" />
<glyph unicode="&amp;" glyph-name="ampersand" horiz-adv-x="634" d="M659 0H560L476 119H470L462 110Q366 -7 244 -7Q172 -7 128 31T83 137Q83 212 128 271T255 358L294 371L295 375L292 380Q270 410 256 439T241 511Q241 567 270 613T349 686T462 713Q534 713
582 674T630 561Q630 545 627 525L624 504H535L537 520Q539 529 539 547Q539 591 514 614T450 637Q397 637 362 602T326 515Q326 484 338 461T383 391L484 248L571 364H658L525 190L659 0ZM435 176L332 322L285 307Q231 289 200 249T168 160Q168 118 195 94T268
69Q324 69 361 98T427 165L435 176Z" />
<glyph unicode="&apos;" glyph-name="quotesingle" horiz-adv-x="300" d="M146 524Q182 538 201 561T220 615Q220 630 213 634T192 639Q170 639 160 649T150 675Q150 705 170 724T222 744Q281 744 281 690Q281 682 279 670L273 634Q263 574 227 539T141 488L146 524Z" />
<glyph unicode="(" glyph-name="parenleft" horiz-adv-x="460" d="M281 -188T243 -138T177 -11T150 166Q150 332 215 467T364 687T495 792L516 766Q477 736 412 652T292 434T237 141Q237 13 274 -67T349 -187L319 -213Q281 -188 243 -138Z" />
<glyph unicode=")" glyph-name="parenright" horiz-adv-x="471" d="M61 -187Q98 -159 160 -76T274 137T326 421Q326 554 285 638T206 766L237 792Q265 778 306 728T380 592T413 399Q413 238 351 106T208 -110T81 -213L61 -187Z" />
<glyph unicode="*" glyph-name="asterisk" horiz-adv-x="476" d="M326 551L190 469L171 528L311 587L198 647L245 706L346 623L365 769H430L386 622L524 706L542 647L400 587L514 528L469 469L367 551L347 406H282L326 551Z" />
<glyph unicode="+" glyph-name="plus" horiz-adv-x="579" d="M533 274H373L346 115H270L297 274H139L151 351H310L337 509H413L386 351H546L533 274Z" />
<glyph unicode="," glyph-name="comma" horiz-adv-x="286" d="M78 -124Q114 -110 133 -86T153 -30Q153 -15 146 -11T125 -6Q102 -6 92 4T81 31Q81 62 101 82T155 102Q216 102 216 46Q216 39 214 25L207 -11Q196 -73 160 -109T72 -161L78 -124Z" />
<glyph unicode="-" glyph-name="hyphen" horiz-adv-x="601" d="M233 348H600L576 277H210L233 348Z" />
<glyph unicode="." glyph-name="period" horiz-adv-x="273" d="M114 -7T101 7T87 42Q87 69 107 89T155 109Q177 109 191 96T205 62Q205 35 184 14T135 -7Q114 -7 101 7Z" />
<glyph unicode="/" glyph-name="slash" horiz-adv-x="510" d="M582 803H666L98 -156H14L582 803Z" />
<glyph unicode="0" glyph-name="zero" horiz-adv-x="605" d="M195 -10T145 51T94 215Q94 253 102 301L120 405Q143 542 220 628T423 714Q527 714 578 654T629 492Q629 453 621 405L603 301Q580 163 503 77T300 -10Q195 -10 145 51ZM388 66T439 126T511 304L527
401Q535 444 535 487Q535 562 504 600T411 638Q334 638 284 579T213 401L196 304Q188 254 188 219Q188 143 219 105T312 66Q388 66 439 126Z" />
<glyph unicode="1" glyph-name="one" horiz-adv-x="493" d="M463 77L451 0H96L109 77H251L340 597H336L174 465L191 568L353 700H438L332 77H463Z" />
<glyph unicode="2" glyph-name="two" horiz-adv-x="585" d="M83 75L277 226L300 244Q375 299 421 339T500 429T532 532Q532 579 503 609T413 639Q355 639 318 614T265 555T249 490L248 483H159Q169 542 201 595T290 681T426 715Q521 715 568 668T615 548Q615 475
578 414T491 308T360 202L203 82L202 77H545L533 0H71L83 75Z" />
<glyph unicode="3" glyph-name="three" horiz-adv-x="588" d="M194 -8T143 44T91 172H178Q183 126 217 98T313 70Q390 70 438 113T487 225Q487 275 450 301T358 328H291L303 397H365Q441 397 486 436T532 541Q532 588 499 615T409 642Q350 642 310 614T253 541H169Q193
613 255 664T423 716Q522 716 570 670T618 554Q618 488 587 446T520 384T474 364L473 358Q484 357 506 345T549 305T570 229Q570 161 535 107T439 23T302 -8Q194 -8 143 44Z" />
<glyph unicode="4" glyph-name="four" horiz-adv-x="602" d="M397 173L75 174L88 252L463 700H572L494 243H594L583 173H482L453 0H368L397 173ZM410 244L471 597L170 244H410Z" />
<glyph unicode="5" glyph-name="five" horiz-adv-x="604" d="M244 -4T198 22T129 90T106 180H192Q198 126 235 100T323 74Q376 74 418 101T485 177T509 284Q509 346 473 376T380 406Q313 406 278 375T230 318L140 324L224 700H622L609 620H283L231 395H235Q301
472 409 472Q495 472 545 425T596 294Q596 213 559 145T457 36T311 -4Q244 -4 198 22Z" />
<glyph unicode="6" glyph-name="six" horiz-adv-x="590" d="M243 -8T197 12T121 74T92 182Q92 252 120 318T187 437T281 554L405 700H492L217 374L221 373L240 391Q265 414 303 431T391 448Q473 448 524 400T575 270Q575 193 539 130T439 29T298 -8Q243 -8 197
12ZM356 64T398 90T465 159T490 251Q490 306 456 343T358 381Q307 381 265 355T199 285T175 191Q175 136 209 100T305 64Q356 64 398 90Z" />
<glyph unicode="7" glyph-name="seven" horiz-adv-x="512" d="M119 12L489 612L490 620H133L146 700H590L577 615L205 0H117L119 12Z" />
<glyph unicode="8" glyph-name="eight" horiz-adv-x="611" d="M232 -11T183 12T111 73T87 157Q87 209 111 253T172 325T241 364L242 369Q214 382 193 414T171 490Q171 548 203 599T295 682T430 714Q526 714 574 668T623 554Q623 509 604 471T557 406T500 369L499
364Q535 352 564 315T594 223Q594 159 558 106T456 21T306 -11Q232 -11 183 12ZM423 394T460 413T519 466T540 540Q540 583 510 612T418 641Q370 641 333 622T274 569T253 494Q253 450 283 422T375 394Q423 394 460 413ZM373 63T416 85T484 144T508 226Q508 275
473 307T366 339Q311 339 268 318T200 259T175 175Q175 126 210 95T318 63Q373 63 416 85Z" />
<glyph unicode="9" glyph-name="nine" horiz-adv-x="590" d="M493 329L489 330L469 312Q444 289 407 272T319 255Q237 255 186 303T135 433Q135 511 172 575T272 677T414 714Q468 714 514 694T589 631T618 523Q618 451 588 382T520 260T429 147L305 0L210 -1L493
329ZM402 322T444 348T510 419T535 515Q535 570 501 606T406 642Q354 642 312 616T244 547T219 453Q219 397 253 360T351 322Q402 322 444 348Z" />
<glyph unicode=":" glyph-name="colon" horiz-adv-x="293" d="M363 -7T350 7T336 42Q336 69 356 89T404 109Q426 109 440 96T454 62Q454 35 433 14T384 -7Q363 -7 350 7ZM107 406T94 420T80 455Q80 482 100 502T148 522Q170 522 184 509T198 475Q198 448 177 427T128
406Q107 406 94 420Z" />
<glyph unicode=";" glyph-name="semicolon" horiz-adv-x="315" d="M192 406T179 420T165 455Q165 482 185 502T233 522Q255 522 269 509T283 475Q283 448 262 427T213 406Q192 406 179 420ZM90 -123Q126 -109 145 -85T165 -29Q165 -14 158 -10T137 -5Q114 -5 104
5T93 32Q93 63 113 83T167 103Q228 103 228 47Q228 40 226 26L219 -10Q208 -72 172 -108T84 -160L90 -123Z" />
<glyph unicode="&lt;" glyph-name="less" horiz-adv-x="566" d="M547 472L247 330L246 325L497 183L485 107H472L152 298L161 357L547 548H560L547 472Z" />
<glyph unicode="=" glyph-name="equal" horiz-adv-x="710" d="M198 461H668L656 387H186L198 461ZM160 240H630L618 166H148L160 240Z" />
<glyph unicode="&gt;" glyph-name="greater" horiz-adv-x="566" d="M206 548L527 357L518 298L132 107H120L132 183L432 325L433 330L182 472L194 548H206Z" />
<glyph unicode="?" glyph-name="question" horiz-adv-x="577" d="M280 192Q283 241 312 276T399 357Q440 391 463 413T503 467T520 536Q520 584 487 609T397 635Q345 635 308 613T251 557T231 491V487H151V491Q151 555 186 606T280 687T411 716Q504 716 556 671T609
551Q609 498 589 458T541 390T466 326Q415 284 391 257T364 192L363 184H279L280 192ZM261 -9T248 4T235 37Q235 63 255 82T300 102Q321 102 334 89T347 56Q347 31 327 11T281 -9Q261 -9 248 4Z" />
<glyph unicode="@" glyph-name="at" horiz-adv-x="1011" d="M368 -165T283 -122T154 1T109 184Q109 330 178 450T366 641T630 711Q743 711 826 668T955 550T1000 379Q1000 292 968 222T880 111T755 70Q714 70 688 87T653 122T633 165H627Q607 124 568 95T473 66Q404
66 369 110T333 225Q333 294 361 353T437 448T541 483Q586 483 614 464T651 418H656L666 476H735L708 315Q696 249 696 216Q696 173 713 149T773 124Q817 124 853 156T910 243T931 367Q931 449 893 512T783 609T615 644Q493 644 394 586T237 425T180 196Q180 106
218 40T330 -62T508 -98H771L760 -165H488Q368 -165 283 -122ZM536 129T568 154T619 222T638 318Q638 366 615 394T548 423Q509 423 477 398T426 330T407 234Q407 187 429 158T497 129Q536 129 568 154Z" />
<glyph unicode="A" glyph-name="A" horiz-adv-x="680" d="M518 204H233L124 0H36L418 700H500L646 0H558L518 204ZM505 273L443 590H439L270 273H505Z" />
<glyph unicode="B" glyph-name="B" horiz-adv-x="624" d="M194 700H474Q563 700 603 658T644 555Q644 502 620 462T561 399T499 370L497 364Q520 362 549 349T599 306T621 231Q621 172 590 119T501 33T371 0H75L194 700ZM396 393Q443 393 480 411T538 463T559
537Q559 584 525 605T437 627H266L225 393H396ZM361 73Q441 73 489 115T537 228Q537 280 500 302T405 325H214L171 73H361Z" />
<glyph unicode="C" glyph-name="C" horiz-adv-x="712" d="M242 -7T175 68T107 269Q107 392 158 494T297 656T491 715Q609 715 675 649T748 469H663Q656 545 608 591T480 637Q400 637 336 590T235 460T198 274Q198 179 245 126T382 72Q457 72 518 112T614 221H700Q654
117 568 55T368 -7Q242 -7 175 68Z" />
<glyph unicode="D" glyph-name="D" horiz-adv-x="687" d="M194 700H450Q572 700 641 630T711 435Q711 313 661 214T524 57T330 0H75L194 700ZM331 80Q412 80 478 123T581 245T619 423Q619 521 567 571T424 622H265L172 80H331Z" />
<glyph unicode="E" glyph-name="E" horiz-adv-x="569" d="M268 622L229 392H531L519 322H217L175 78H519L506 0H75L194 700H625L613 622H268Z" />
<glyph unicode="F" glyph-name="F" horiz-adv-x="516" d="M268 622L229 391L521 393L510 322H217L162 0H75L194 700H612L599 622H268Z" />
<glyph unicode="G" glyph-name="G" horiz-adv-x="716" d="M269 -7T213 31T132 131T106 270Q106 392 157 494T295 655T486 715Q603 715 664 652T738 492H647Q638 560 595 598T473 636Q395 636 331 588T231 457T194 271Q194 173 242 120T378 66Q440 66 491 92T574
165T617 269L623 297H428L439 362H715L654 0H585L605 116H597Q577 82 519 38T356 -7Q269 -7 213 31Z" />
<glyph unicode="H" glyph-name="H" horiz-adv-x="679" d="M723 700L604 0H517L571 317H215L161 0H75L194 700H280L227 387H583L636 700H723Z" />
<glyph unicode="I" glyph-name="I" horiz-adv-x="243" d="M197 700H284L165 0H78L197 700Z" />
<glyph unicode="J" glyph-name="J" horiz-adv-x="347" d="M74 -3T51 4L61 67Q85 63 107 63Q158 63 176 88T202 157L295 700H380L284 136Q274 79 239 38T117 -3Q74 -3 51 4Z" />
<glyph unicode="K" glyph-name="K" horiz-adv-x="624" d="M192 700H278L225 390H230L561 700H666L339 399L568 0H467L275 336L206 273L159 0H73L192 700Z" />
<glyph unicode="L" glyph-name="L" horiz-adv-x="529" d="M501 78L488 0H75L194 700H281L174 78H501Z" />
<glyph unicode="M" glyph-name="M" horiz-adv-x="823" d="M194 700H321L437 164H440L740 700H867L748 0H663L760 567H756L442 0H380L261 567H257L160 0H75L194 700Z" />
<glyph unicode="N" glyph-name="N" horiz-adv-x="711" d="M194 700H291L570 138H573L670 700H755L636 0H538L259 554H255L160 0H75L194 700Z" />
<glyph unicode="O" glyph-name="O" horiz-adv-x="735" d="M239 -7T172 67T104 266Q104 391 154 493T293 655T489 715Q615 715 682 641T750 440Q750 315 700 213T561 52T366 -7Q239 -7 172 67ZM456 73T520 120T621 249T658 428Q658 524 611 580T476 636Q399 636
335 589T234 459T196 280Q196 185 243 129T379 73Q456 73 520 120Z" />
<glyph unicode="P" glyph-name="P" horiz-adv-x="585" d="M540 700T589 648T639 516Q639 443 605 380T506 280T354 242H200L159 0H75L194 700H432Q540 700 589 648ZM447 317T501 368T555 506Q555 569 513 595T408 622H265L213 317H356Q447 317 501 368Z" />
<glyph unicode="Q" glyph-name="Q" horiz-adv-x="732" d="M750 322T704 223T579 65L654 -56H571L519 28Q449 -7 366 -7Q239 -7 172 67T104 266Q104 391 154 493T293 655T489 715Q615 715 682 641T750 440Q750 322 704 223ZM429 73T478 95L370 269H453L537 134Q593
182 625 259T658 428Q658 524 611 580T476 636Q399 636 335 589T234 459T196 280Q196 185 243 129T379 73Q429 73 478 95Z" />
<glyph unicode="R" glyph-name="R" horiz-adv-x="605" d="M642 470T617 419T542 332T425 284L561 0H466L334 279H208L161 0H75L194 700H432Q541 700 591 651T642 527Q642 470 617 419ZM452 353T504 397T557 517Q557 575 515 598T408 622H267L221 353H362Q452 353
504 397Z" />
<glyph unicode="S" glyph-name="S" horiz-adv-x="599" d="M223 -8T173 25T101 111T83 223V228H179V223Q179 162 209 117T319 71Q368 71 408 90T471 143T495 218Q495 257 469 280T401 312L302 331Q155 363 155 482Q155 547 190 600T285 684T421 715Q497 715 545
684T614 605T635 501V497H536V500Q536 553 510 596T405 639Q361 639 324 620T265 568T243 496Q243 460 268 438T335 407L424 389Q587 354 587 234Q587 167 550 112T447 24T304 -8Q223 -8 173 25Z" />
<glyph unicode="T" glyph-name="T" horiz-adv-x="589" d="M650 622H443L337 0H251L357 622H151L164 700H662L650 622Z" />
<glyph unicode="U" glyph-name="U" horiz-adv-x="684" d="M228 -9T169 50T110 221Q110 258 118 308L185 700H270L203 311Q196 267 196 240Q196 170 231 122T355 74Q469 74 519 148T586 311L653 700H738L671 308Q645 156 560 74T342 -9Q228 -9 169 50Z" />
<glyph unicode="V" glyph-name="V" horiz-adv-x="633" d="M133 700H221L328 87H334L651 700H738L377 0H257L133 700Z" />
<glyph unicode="W" glyph-name="W" horiz-adv-x="993" d="M134 700H220L273 103H279L576 700H655L746 103H752L1011 700H1097L790 0H676L594 549H588L316 0H202L134 700Z" />
<glyph unicode="X" glyph-name="X" horiz-adv-x="658" d="M333 350L160 700H256L397 411H403L642 700H739L447 350L620 0H523L383 289H377L137 0H40L333 350Z" />
<glyph unicode="Y" glyph-name="Y" horiz-adv-x="614" d="M262 -1L305 253L153 700H247L361 350H368L601 700H695L392 253L349 0L262 -1Z" />
<glyph unicode="Z" glyph-name="Z" horiz-adv-x="612" d="M65 80L548 618V620H158L171 700H666L653 620L170 82V80H560L547 0H52L65 80Z" />
<glyph unicode="[" glyph-name="bracketleft" horiz-adv-x="441" d="M283 748L132 -112H345L333 -180H50L225 816H508L497 748H283Z" />
<glyph unicode="\" glyph-name="backslash" horiz-adv-x="510" d="M361 -156L108 803H191L444 -156H361Z" />
<glyph unicode="]" glyph-name="bracketright" horiz-adv-x="436" d="M324 -180H41L53 -112H266L418 748H205L216 816H500L324 -180Z" />
<glyph unicode="^" glyph-name="asciicircum" horiz-adv-x="418" d="M130 580L289 757H384L482 580L480 568H404L329 705H325L204 568H128L130 580Z" />
<glyph unicode="_" glyph-name="underscore" horiz-adv-x="705" d="M122 72H606L595 0H111L122 72Z" />
<glyph unicode="`" glyph-name="grave" horiz-adv-x="250" d="M166 801H258L326 622H257L166 801Z" />
<glyph unicode="a" glyph-name="a" horiz-adv-x="609" d="M171 -7T125 49T78 198Q78 292 115 370T215 495T355 541Q425 541 462 508T513 429H521L538 527H624L535 0H448L467 108H460Q379 -7 259 -7Q171 -7 125 49ZM353 67T398 101T469 193T496 321Q496 386 464
426T367 467Q311 467 266 434T194 342T168 213Q168 148 200 108T298 67Q353 67 398 101Z" />
<glyph unicode="b" glyph-name="b" horiz-adv-x="622" d="M278 -7T240 27T187 108H179L161 0H74L202 750H288L234 429H241Q271 475 319 508T439 541Q527 541 574 485T621 337Q621 242 585 164T485 39T347 -7Q278 -7 240 27ZM388 67T433 100T505 192T532 321Q532
386 500 426T402 466Q347 466 302 433T230 342T204 214Q204 148 236 108T333 67Q388 67 433 100Z" />
<glyph unicode="c" glyph-name="c" horiz-adv-x="563" d="M181 -7T131 54T80 209Q80 236 82 249Q90 325 128 392T231 500T379 541Q448 541 493 513T558 438T576 337H492Q493 395 462 431T368 468Q311 468 265 434T193 342T166 212Q166 146 199 106T299 66Q361
66 404 102T468 197H552Q526 111 457 52T286 -7Q181 -7 131 54Z" />
<glyph unicode="d" glyph-name="d" horiz-adv-x="609" d="M172 -7T126 49T79 198Q79 292 116 371T216 495T355 541Q425 541 463 508T514 429H521L576 750H663L535 0H449L467 108H460Q428 60 378 27T259 -7Q172 -7 126 49ZM353 67T398 100T469 192T496 320Q496
385 464 425T367 466Q312 466 267 433T195 341T168 212Q168 147 200 107T298 67Q353 67 398 100Z" />
<glyph unicode="e" glyph-name="e" horiz-adv-x="565" d="M189 -3T135 59T81 219Q81 308 119 382T226 501T387 545Q482 545 527 503T572 401Q572 359 549 324T480 267T366 245H167L166 238Q164 220 164 212Q164 152 200 111T301 69Q351 69 392 95T457 165H543Q510
91 447 44T293 -3Q189 -3 135 59ZM367 306Q430 306 459 332T488 395Q488 428 462 452T376 477Q297 477 246 431T179 306H367Z" />
<glyph unicode="f" glyph-name="f" horiz-adv-x="373" d="M361 675T343 662T318 630T306 582L297 527H421L409 458H285L188 -103Q166 -245 24 -245Q4 -245 -16 -243T-46 -237L-36 -175Q-12 -179 14 -179Q49 -179 67 -166T92 -134T104 -86L197 458H125L137 527H209L221
596Q231 655 266 696T386 738Q406 738 426 736T455 730L446 670Q426 675 396 675Q361 675 343 662Z" />
<glyph unicode="g" glyph-name="g" horiz-adv-x="610" d="M218 -211T179 -196L191 -124Q203 -128 224 -131T267 -135Q346 -135 392 -91T452 26L469 121H461Q431 74 380 42T261 9Q176 9 128 64T80 211Q80 301 116 377T215 498T352 543Q420 543 461 508T512 425H520L538
526H624L539 26Q529 -30 498 -84T407 -174T263 -211Q218 -211 179 -196ZM355 83T400 116T471 204T497 324Q497 387 465 427T368 468Q314 468 269 436T198 349T172 229Q172 165 204 124T302 83Q355 83 400 116Z" />
<glyph unicode="h" glyph-name="h" horiz-adv-x="612" d="M202 747H288L235 432H242Q271 478 321 509T436 541Q521 541 561 493T602 369Q602 345 597 315L544 0H458L510 304Q514 332 514 344Q514 403 481 433T389 464Q326 464 276 421T213 304L161 0H75L202 747Z" />
<glyph unicode="i" glyph-name="i" horiz-adv-x="250" d="M172 527H258L168 0H82L172 527ZM209 625T197 638T184 671Q184 697 204 717T250 737Q271 737 284 724T298 691Q298 665 277 645T230 625Q209 625 197 638Z" />
<glyph unicode="j" glyph-name="j" horiz-adv-x="253" d="M217 625T204 638T191 671Q191 697 211 717T257 737Q278 737 291 724T305 691Q305 665 285 645T238 625Q217 625 204 638ZM-48 -219T-74 -211L-64 -149Q-49 -153 -18 -153Q33 -153 51 -128T76 -60L177
534H263L159 -80Q137 -219 -6 -219Q-48 -219 -74 -211Z" />
<glyph unicode="k" glyph-name="k" horiz-adv-x="516" d="M205 747H292L221 329H225L454 527H557L284 290L477 0H378L213 257H209L165 0H78L205 747Z" />
<glyph unicode="l" glyph-name="l" horiz-adv-x="314" d="M145 -4T120 18T95 82Q95 106 102 144L206 750H292L191 157Q185 117 185 106Q185 83 198 72T247 60Q268 60 284 63L274 1Q247 -4 209 -4Q145 -4 120 18Z" />
<glyph unicode="m" glyph-name="m" horiz-adv-x="958" d="M165 527H250L234 430H241Q260 462 305 501T427 541Q485 541 519 514T566 457T579 417H587Q591 428 615 457T685 514T791 541Q871 541 910 492T949 368Q949 344 944 316L890 0H805L857 308Q861 336 861
347Q861 404 829 433T748 462Q689 462 640 422T578 308L525 0H440L492 308Q496 336 496 347Q496 404 464 433T383 462Q324 462 275 422T213 308L160 0H75L165 527Z" />
<glyph unicode="n" glyph-name="n" horiz-adv-x="612" d="M165 527H251L235 432H242Q271 478 321 509T436 541Q521 541 561 493T602 369Q602 345 597 315L544 0H458L510 304Q514 332 514 343Q514 402 481 433T391 464Q323 464 275 420T213 304L161 0H75L165 527Z" />
<glyph unicode="o" glyph-name="o" horiz-adv-x="583" d="M182 -7T131 54T79 208Q79 298 119 374T227 496T377 541Q478 541 530 480T582 326Q582 236 542 160T434 38T284 -7Q182 -7 131 54ZM350 67T396 101T469 193T496 320Q496 386 462 427T365 468Q311 468 265
434T192 342T165 215Q165 149 199 108T296 67Q350 67 396 101Z" />
<glyph unicode="p" glyph-name="p" horiz-adv-x="621" d="M278 -7T240 26T186 108H179L126 -203H39L164 527H251L234 429H241Q270 474 319 507T438 541Q527 541 574 485T621 337Q621 242 585 164T485 39T347 -7Q278 -7 240 26ZM388 67T433 100T505 192T532 321Q532
386 500 426T402 466Q347 466 302 433T230 341T203 214Q203 148 235 108T333 67Q388 67 433 100Z" />
<glyph unicode="q" glyph-name="q" horiz-adv-x="609" d="M172 -7T126 49T79 198Q79 292 116 371T216 495T355 541Q425 541 463 508T514 429H521L538 527H625L500 -203H413L467 108H460Q428 60 378 27T259 -7Q172 -7 126 49ZM353 67T398 100T469 192T496 320Q496
385 464 425T367 466Q312 466 267 433T195 341T168 212Q168 147 200 107T298 67Q353 67 398 100Z" />
<glyph unicode="r" glyph-name="r" horiz-adv-x="353" d="M161 527H247L232 443H238Q258 478 295 502T384 527Q409 527 430 520L413 436Q398 441 387 443T358 445Q232 445 208 298L157 0H71L161 527Z" />
<glyph unicode="s" glyph-name="s" horiz-adv-x="496" d="M198 -7T157 13T95 66T73 136Q73 153 77 168L78 173H160L159 169Q159 126 185 95T268 64Q323 64 359 93T396 165Q396 194 375 210T322 232L255 242Q200 251 162 279T124 361Q124 412 152 453T229 517T341
541Q429 541 472 495T512 380L511 376H423V378Q423 415 403 444T327 474Q276 474 241 446T205 376Q205 350 224 334T274 312L347 300Q405 290 443 262T481 179Q481 128 451 86T369 18T254 -7Q198 -7 157 13Z" />
<glyph unicode="t" glyph-name="t" horiz-adv-x="404" d="M242 152Q236 112 236 102Q236 80 249 70T299 60Q320 60 353 67L342 5Q334 2 310 -1T261 -4Q196 -4 171 16T146 78Q146 93 152 133L208 458H110L121 527H219L249 700H335L306 527H431L420 458H294L242 152Z" />
<glyph unicode="u" glyph-name="u" horiz-adv-x="602" d="M531 0H444L461 100H455Q427 54 378 23T265 -9Q183 -9 144 39T104 162Q104 187 109 217L162 527H248L197 228Q193 208 193 186Q193 128 224 98T310 68Q377 68 424 112T483 228L534 527H621L531 0Z" />
<glyph unicode="v" glyph-name="v" horiz-adv-x="553" d="M122 527H206L289 91H294L527 527H611L329 0H223L122 527Z" />
<glyph unicode="w" glyph-name="w" horiz-adv-x="817" d="M123 527H205L248 94H252L460 527H538L599 94H603L793 527H875L640 0H530L479 385H473L289 0H179L123 527Z" />
<glyph unicode="x" glyph-name="x" horiz-adv-x="555" d="M253 264L124 527H221L319 313H322L493 527H590L372 264L499 0H402L306 212H303L132 0H34L253 264Z" />
<glyph unicode="y" glyph-name="y" horiz-adv-x="491" d="M214 -109T195 -134T138 -182T49 -204Q21 -204 -9 -196L1 -132Q25 -136 43 -136Q75 -136 97 -124T135 -92T173 -33L207 26L97 527H187L264 121H270L494 527H584L235 -73Q214 -109 195 -134Z" />
<glyph unicode="z" glyph-name="z" horiz-adv-x="499" d="M63 70L436 454L437 456H147L159 528H545L533 458L160 74V72H466L455 0H52L63 70Z" />
<glyph unicode="{" glyph-name="braceleft" horiz-adv-x="458" d="M230 -216T199 -193T168 -111Q168 -93 173 -61L214 189Q221 235 221 248Q221 273 206 280T146 287L153 330Q196 330 214 336T238 361T253 429L294 679Q308 763 348 798T464 833H541L531 771H459Q417
771 399 755T372 690L333 451Q321 380 307 349T261 314L259 304Q279 301 287 287T295 247Q295 225 286 166L247 -73Q244 -93 244 -107Q244 -132 257 -143T307 -154H378L368 -216H291Q230 -216 199 -193Z" />
<glyph unicode="|" glyph-name="bar" horiz-adv-x="289" d="M270 950H343L141 -238H68L270 950Z" />
<glyph unicode="}" glyph-name="braceright" horiz-adv-x="472" d="M80 -216L91 -154H163Q206 -154 224 -137T251 -73L292 166Q305 236 319 268T367 304L368 314Q349 316 341 329T333 367Q333 394 343 451L385 690Q389 716 389 724Q389 750 375 760T326 771H254L265
833H343Q403 833 433 811T464 731Q464 712 459 679L414 429Q406 387 406 369Q406 345 421 338T482 330L474 287Q431 287 414 281T389 256T372 189L328 -61Q312 -149 271 -182T158 -216H80Z" />
<glyph unicode="~" glyph-name="asciitilde" horiz-adv-x="564" d="M156 351T172 376T217 420T285 438Q308 438 325 432T362 412Q378 402 391 397T421 391Q448 391 463 405T485 438H543Q538 415 522 390T478 347T411 329Q387 329 370 335T333 355Q317 365 304
370T275 376Q247 376 231 362T209 329H151Q156 351 172 376Z" />
<glyph unicode="&#xa0;" glyph-name="uni00A0" horiz-adv-x="230" />
<glyph unicode="&#xa1;" glyph-name="exclamdown" horiz-adv-x="262" d="M278 512T291 499T304 466Q304 441 285 421T239 401Q218 401 205 414T192 447Q192 472 212 492T258 512Q278 512 291 499ZM246 319L189 -130L170 -250H76L95 -130L187 319H246Z" />
<glyph unicode="&#xa2;" glyph-name="cent" horiz-adv-x="600" d="M505 337Q506 393 477 429T390 468L322 66Q380 69 421 105T481 197H565Q539 114 473 56T309 -7L299 -68H261L272 -6Q181 2 137 62T93 209Q93 236 95 249Q103 321 137 385T230 491T364 540L376
608H414L403 541Q499 537 545 479T589 337H505ZM179 154T205 116T284 68L352 466Q302 457 263 422T202 332T179 212Q179 154 205 116Z" />
<glyph unicode="&#xa3;" glyph-name="sterling" horiz-adv-x="598" d="M532 715T573 661T615 542Q615 522 612 507L609 492H516L518 504Q520 516 520 529Q520 573 496 607T407 641Q361 641 327 621T275 569T256 500Q256 476 263 455T287 402Q312 352 319 323H476L468
270H324Q322 218 298 177T242 110T188 80L187 75H557L545 0H43L56 76H76Q111 76 148 98T209 160T234 249Q234 263 233 270H102L111 323H217Q214 330 197 364Q178 400 169 427T159 488Q159 547 190 599T281 683T419 715Q532 715 573 661Z" />
<glyph unicode="&#xa4;" glyph-name="currency" horiz-adv-x="587" d="M447 181Q383 140 316 140Q284 140 254 151T201 181L131 118L91 163L161 226Q135 267 135 321Q135 366 155 410T211 491L162 554L217 598L266 534Q326 571 389 571Q452 571 501 535L571 598L612
554L542 491Q572 448 572 391Q572 346 552 302T502 225L551 162L495 117L447 181ZM370 208T411 232T478 297T503 381Q503 433 467 467T375 502Q331 502 292 478T228 415T204 331Q204 278 238 243T325 208Q370 208 411 232Z" />
<glyph unicode="&#xa5;" glyph-name="yen" horiz-adv-x="625" d="M690 691L419 293H544L535 240H390L379 179H524L516 126H370L349 0L262 -1L284 126H139L148 179H293L304 240H158L167 293H292L156 691L157 700H247L362 350H369L601 700H692L690 691Z" />
<glyph unicode="&#xa6;" glyph-name="brokenbar" horiz-adv-x="289" d="M270 951H343L253 421H180L270 951ZM152 258H225L141 -238H68L152 258Z" />
<glyph unicode="&#xa7;" glyph-name="section" horiz-adv-x="554" d="M215 -8T173 13T110 68T89 141Q89 153 90 159H178Q176 140 185 118T219 79T288 63Q342 63 377 87T413 150Q413 175 392 190T341 210L273 222Q211 232 163 262T114 349Q114 393 140 426T212
475L213 478Q177 501 177 547Q177 595 204 633T281 692T392 714Q484 714 527 670T568 561H480Q475 648 381 648Q330 648 295 624T260 562Q260 539 279 524T329 504L404 492Q473 482 518 450T564 364Q564 322 539 288T467 234V232Q484 221 493 204T502 164Q502 116
473 77T392 15T277 -8Q215 -8 173 13ZM416 271T434 282T463 312T475 352Q475 380 449 399T380 425L296 439Q257 443 228 419T198 360Q198 333 220 317T282 294L398 273Q416 271 434 282Z" />
<glyph unicode="&#xa8;" glyph-name="dieresis" horiz-adv-x="367" d="M369 625T357 638T344 671Q344 697 364 717T410 737Q431 737 444 724T458 691Q458 665 437 645T390 625Q369 625 357 638ZM173 625T161 638T148 671Q148 697 168 717T214 737Q235 737 248
724T262 691Q262 665 241 645T194 625Q173 625 161 638Z" />
<glyph unicode="&#xa9;" glyph-name="copyright" horiz-adv-x="810" d="M299 -10T230 33T130 144T98 289Q98 393 152 491T305 651T530 713Q638 713 705 671T802 563T832 420Q832 317 780 218T631 54T407 -10Q299 -10 230 33ZM522 50T603 103T728 240T772 409Q772
473 748 528T667 618T520 654Q415 654 333 603T205 469T159 300Q159 236 185 179T268 86T416 50Q522 50 603 103ZM349 140T305 189T261 311Q261 378 294 436T383 529T505 564Q582 564 626 522T677 414L618 406Q613 453 582 481T498 509Q450 509 410 484T345 414T321
318Q321 264 353 230T444 196Q496 196 537 223T599 299L655 291Q630 227 572 184T434 140Q349 140 305 189Z" />
<glyph unicode="&#xaa;" glyph-name="ordfeminine" horiz-adv-x="154" d="M104 387T92 401T80 439Q80 477 100 504T149 531Q166 531 175 523T186 507H188L191 528H231L208 389H168L171 412H169Q152 387 125 387Q104 387 92 401ZM160 418T171 434T182 471Q182 483
176 491T158 499Q141 499 131 484T120 447Q120 435 126 427T144 418Q160 418 171 434Z" />
<glyph unicode="&#xab;" glyph-name="guillemotleft" horiz-adv-x="636" d="M346 107H256L93 316L328 527H418L186 316L346 107ZM615 107H526L363 316L598 527H687L455 316L615 107Z" />
<glyph unicode="&#xac;" glyph-name="logicalnot" horiz-adv-x="655" d="M653 458L622 273H552L583 458H158L170 530H665L653 458Z" />
<glyph unicode="&#xad;" glyph-name="uni00AD" horiz-adv-x="600" d="M233 348H600L576 277H210L233 348Z" />
<glyph unicode="&#xae;" glyph-name="registered" horiz-adv-x="340" d="M193 450T167 480T141 553Q141 589 159 623T212 678T290 700Q344 700 369 670T394 598Q394 562 376 528T325 472T247 450Q193 450 167 480ZM286 480T312 497T352 540T366 593Q366 625 347
648T285 671Q252 671 226 655T186 612T171 558Q171 526 191 503T252 480Q286 480 312 497ZM236 638H290Q307 638 315 630T323 608Q323 591 315 579T293 562L311 515V513H283L268 560H248L241 513H215L236 638ZM274 579Q285 579 291 585T297 601Q297 615 281 615H258L251
579H274Z" />
<glyph unicode="&#xaf;" glyph-name="overscore" horiz-adv-x="360" d="M147 686H447L439 641H139L147 686Z" />
<glyph unicode="&#xb0;" glyph-name="degree" horiz-adv-x="300" d="M230 674T207 697T184 754Q184 782 200 808T242 850T297 866Q333 866 356 843T379 786Q379 757 363 731T321 690T265 674Q230 674 207 697ZM296 718T315 736T334 779Q334 797 322 809T290 821Q266
821 248 803T229 761Q229 743 241 731T273 718Q296 718 315 736Z" />
<glyph unicode="&#xb1;" glyph-name="plusminus" horiz-adv-x="607" d="M568 387L556 311H396L369 151H293L320 311H161L173 387H333L360 546H436L409 387H568ZM118 61H514L503 0H108L118 61Z" />
<glyph unicode="&#xb2;" glyph-name="uni00B2" horiz-adv-x="305" d="M99 430L191 505L211 520Q269 563 299 594T329 663Q329 684 316 698T275 712Q235 712 217 688T192 633H137Q147 687 185 723T283 760Q333 760 358 736T384 673Q384 622 353 585T268 507L249
492L176 433V430H351L342 379H91L99 430Z" />
<glyph unicode="&#xb3;" glyph-name="uni00B3" horiz-adv-x="315" d="M164 373T135 403T108 477H166Q168 454 186 440T232 426Q268 426 292 447T316 499Q316 523 298 536T254 550H218L226 596H258Q294 596 317 615T340 664Q340 687 324 700T280 714Q251 714 232
700T204 663H147Q162 704 197 732T289 761Q344 761 370 736T397 672Q397 639 381 617T345 583T321 572V570Q322 570 335 566T360 544T373 503Q373 469 354 439T301 391T224 373Q164 373 135 403Z" />
<glyph unicode="&#xb4;" glyph-name="acute" horiz-adv-x="250" d="M137 622L266 801H357L206 622H137Z" />
<glyph unicode="&#xb5;" glyph-name="uni00B5" horiz-adv-x="646" d="M158 527H244L192 219Q191 215 189 198T186 161Q186 65 278 65Q344 65 390 115T450 239L499 527H586L523 157Q517 119 517 108Q517 84 531 72T581 60Q602 60 618 63L608 1Q581 -4 543 -4Q476
-4 453 22T432 101H425Q424 100 407 74T345 21T250 -6Q217 -6 194 5T153 36L150 34Q152 26 152 15Q152 -7 145 -55T119 -209H32L158 527Z" />
<glyph unicode="&#xb6;" glyph-name="paragraph" horiz-adv-x="539" d="M464 0H407L513 625H441L335 0H277L335 340H272Q192 340 151 380T110 483Q110 543 139 592T220 671T333 700H583L464 0Z" />
<glyph unicode="&#xb7;" glyph-name="middot" horiz-adv-x="283" d="M188 308T175 322T161 357Q161 384 181 404T229 424Q251 424 265 411T279 377Q279 350 258 329T209 308Q188 308 175 322Z" />
<glyph unicode="&#xb8;" glyph-name="cedilla" horiz-adv-x="246" d="M100 -197T122 -180T144 -136Q144 -116 129 -109T96 -102H13L14 -99L61 0H113L84 -57H110Q151 -57 172 -77T193 -128Q193 -160 175 -188T126 -232T55 -249Q23 -249 -1 -239L9 -190Q37 -197
65 -197Q100 -197 122 -180Z" />
<glyph unicode="&#xb9;" glyph-name="uni00B9" horiz-adv-x="258" d="M305 437L297 386H94L102 437H181L224 693H223L133 623L144 689L234 761H289L234 437H305Z" />
<glyph unicode="&#xba;" glyph-name="ordmasculine" horiz-adv-x="161" d="M119 387T105 403T90 444Q90 481 114 507T171 533Q199 533 214 517T229 475Q229 438 205 413T146 387Q119 387 105 403ZM168 416T180 433T192 473Q192 486 186 495T167 504Q150 504 138
488T126 448Q126 434 132 425T152 416Q168 416 180 433Z" />
<glyph unicode="&#xbb;" glyph-name="guillemotright" horiz-adv-x="636" d="M128 527H218L382 316L147 107H57L289 316L128 527ZM398 527H487L652 316L416 107H327L559 316L398 527Z" />
<glyph unicode="&#xbc;" glyph-name="onequarter" horiz-adv-x="812" d="M109 405H184L222 625H220L135 558L148 633L233 700H294L243 405H311L302 350H100L109 405ZM775 688L245 0H172L174 12L703 700H777L775 688ZM795 132L787 84H742L727 0H665L680 84L523
85L531 133L707 350H787L750 132H795ZM716 295L580 133H688L716 295Z" />
<glyph unicode="&#xbd;" glyph-name="onehalf" horiz-adv-x="842" d="M100 350L109 405H184L222 625H220L135 558L148 633L233 700H294L243 405H311L302 350H100ZM795 688L266 0H192L194 12L723 700H797L795 688ZM656 55H811L802 0H563L572 54L649 116L671 132Q722
167 751 196T781 262Q781 280 770 291T735 303Q678 303 664 235H606Q615 289 652 323T745 358Q793 358 817 335T841 275Q841 226 813 192T734 120L718 108L656 57V55Z" />
<glyph unicode="&#xbe;" glyph-name="threequarters" horiz-adv-x="845" d="M169 338T140 366T115 440H177Q179 418 194 407T234 395Q266 395 286 413T307 460Q307 480 292 491T254 502H223L231 549H258Q290 549 309 565T329 608Q329 628 315 639T278 651Q254
651 237 639T213 609H151Q164 649 197 676T287 704Q341 704 366 680T391 621Q391 588 377 567T345 536T323 526L322 522Q325 522 336 516T358 495T368 459Q368 428 351 400T300 355T225 338Q169 338 140 366ZM204 12L732 700H806L804 688L275 0H201L204 12ZM713
84L557 85L566 133L741 350H820L783 132H828L820 84H775L760 0H698L713 84ZM722 133L750 295L614 133H722Z" />
<glyph unicode="&#xbf;" glyph-name="questiondown" horiz-adv-x="530" d="M430 477T443 464T456 431Q456 406 437 386T391 366Q370 366 357 379T344 412Q344 437 364 457T410 477Q430 477 443 464ZM420 276Q413 227 383 193T294 113Q252 80 228 57T187 3T170
-68Q170 -116 204 -141T293 -167Q346 -167 383 -145T440 -89T459 -23V-19H545V-23Q535 -87 500 -138T407 -218T279 -248Q187 -248 135 -203T82 -83Q82 -30 102 11T151 80T227 145Q277 184 302 212T334 276L335 284H421L420 276Z" />
<glyph unicode="&#xc0;" glyph-name="Agrave" horiz-adv-x="680" d="M518 204H233L124 0H36L418 700H500L646 0H558L518 204ZM505 273L443 590H439L270 273H505ZM343 950H435L503 771H434L343 950Z" />
<glyph unicode="&#xc1;" glyph-name="Aacute" horiz-adv-x="680" d="M518 204H233L124 0H36L418 700H500L646 0H558L518 204ZM505 273L443 590H439L270 273H505ZM439 771L568 950H659L508 771H439Z" />
<glyph unicode="&#xc2;" glyph-name="Acircumflex" horiz-adv-x="680" d="M518 204H233L124 0H36L418 700H500L646 0H558L518 204ZM505 273L443 590H439L270 273H505ZM458 912H532L639 766H553L488 856H484L387 766H302L458 912Z" />
<glyph unicode="&#xc3;" glyph-name="Atilde" horiz-adv-x="680" d="M518 204H233L124 0H36L418 700H500L646 0H558L518 204ZM505 273L443 590H439L270 273H505ZM324 843T353 873T432 904Q451 904 465 899T499 882Q514 873 525 869T548 865Q582 865 600 904H655Q645
866 616 836T538 806Q507 806 471 828Q454 837 444 841T422 845Q389 845 370 805H315Q324 843 353 873Z" />
<glyph unicode="&#xc4;" glyph-name="Adieresis" horiz-adv-x="680" d="M518 204H233L124 0H36L418 700H500L646 0H558L518 204ZM505 273L443 590H439L270 273H505ZM553 798T541 811T528 844Q528 870 548 890T594 910Q615 910 628 897T642 864Q642 838 621 818T574
798Q553 798 541 811ZM357 798T345 811T332 844Q332 870 352 890T398 910Q419 910 432 897T446 864Q446 838 425 818T378 798Q357 798 345 811Z" />
<glyph unicode="&#xc5;" glyph-name="Aring" horiz-adv-x="680" d="M518 204H233L124 0H36L418 700H500L646 0H558L518 204ZM505 273L443 590H439L270 273H505ZM442 785T421 806T400 859Q400 884 414 907T452 945T502 960Q535 960 556 939T577 887Q577 861 563
838T524 800T473 785Q442 785 421 806ZM502 826T519 842T536 881Q536 898 525 909T496 920Q474 920 457 904T440 865Q440 848 451 837T480 826Q502 826 519 842Z" />
<glyph unicode="&#xc6;" glyph-name="AE" horiz-adv-x="956" d="M655 622L616 392H918L906 322H604L562 78H906L893 0H462L497 204H261L116 0H20L514 700H1012L1000 622H655ZM508 273L568 622H559L310 273H508Z" />
<glyph unicode="&#xc7;" glyph-name="Ccedilla" horiz-adv-x="712" d="M457 72T518 112T614 221H700Q658 124 580 64T399 -6L374 -54H400Q441 -54 462 -74T483 -125Q483 -157 465 -185T416 -229T345 -246Q313 -246 289 -236L299 -187Q327 -194 355 -194Q390 -194
412 -177T434 -133Q434 -113 419 -106T386 -99H303L304 -96L347 -6Q231 1 169 75T107 269Q107 392 158 494T297 656T491 715Q609 715 675 649T748 469H663Q656 545 608 591T480 637Q400 637 336 590T235 460T198 274Q198 179 245 126T382 72Q457 72 518 112Z" />
<glyph unicode="&#xc8;" glyph-name="Egrave" horiz-adv-x="569" d="M268 622L229 392H531L519 322H217L175 78H519L506 0H75L194 700H625L613 622H268ZM293 950H385L453 771H384L293 950Z" />
<glyph unicode="&#xc9;" glyph-name="Eacute" horiz-adv-x="569" d="M268 622L229 392H531L519 322H217L175 78H519L506 0H75L194 700H625L613 622H268ZM389 771L518 950H609L458 771H389Z" />
<glyph unicode="&#xca;" glyph-name="Ecircumflex" horiz-adv-x="569" d="M268 622L229 392H531L519 322H217L175 78H519L506 0H75L194 700H625L613 622H268ZM408 912H482L589 766H503L438 856H434L337 766H252L408 912Z" />
<glyph unicode="&#xcb;" glyph-name="Edieresis" horiz-adv-x="569" d="M268 622L229 392H531L519 322H217L175 78H519L506 0H75L194 700H625L613 622H268ZM503 798T491 811T478 844Q478 870 498 890T544 910Q565 910 578 897T592 864Q592 838 571 818T524 798Q503
798 491 811ZM307 798T295 811T282 844Q282 870 302 890T348 910Q369 910 382 897T396 864Q396 838 375 818T328 798Q307 798 295 811Z" />
<glyph unicode="&#xcc;" glyph-name="Igrave" horiz-adv-x="243" d="M197 700H284L165 0H78L197 700ZM125 950H217L285 771H216L125 950Z" />
<glyph unicode="&#xcd;" glyph-name="Iacute" horiz-adv-x="243" d="M197 700H284L165 0H78L197 700ZM221 771L350 950H441L290 771H221Z" />
<glyph unicode="&#xce;" glyph-name="Icircumflex" horiz-adv-x="243" d="M197 700H284L165 0H78L197 700ZM240 912H314L421 766H335L270 856H266L169 766H84L240 912Z" />
<glyph unicode="&#xcf;" glyph-name="Idieresis" horiz-adv-x="243" d="M197 700H284L165 0H78L197 700ZM335 798T323 811T310 844Q310 870 330 890T376 910Q397 910 410 897T424 864Q424 838 403 818T356 798Q335 798 323 811ZM139 798T127 811T114 844Q114 870
134 890T180 910Q201 910 214 897T228 864Q228 838 207 818T160 798Q139 798 127 811Z" />
<glyph unicode="&#xd0;" glyph-name="Eth" horiz-adv-x="714" d="M585 700T661 631T738 434Q738 306 686 208T539 54T324 -1H102L158 327H102L112 387H168L221 700H445Q585 700 661 631ZM376 78T448 100T583 200T647 427Q647 515 607 558T518 611T419 622H293L252
387H387L377 327H242L199 78H325Q376 78 448 100Z" />
<glyph unicode="&#xd1;" glyph-name="Ntilde" horiz-adv-x="711" d="M194 700H291L570 138H573L670 700H755L636 0H538L259 554H255L160 0H75L194 700ZM341 843T370 873T449 904Q468 904 482 899T516 882Q531 873 542 869T565 865Q599 865 617 904H672Q662 866
633 836T555 806Q524 806 488 828Q471 837 461 841T439 845Q406 845 387 805H332Q341 843 370 873Z" />
<glyph unicode="&#xd2;" glyph-name="Ograve" horiz-adv-x="735" d="M239 -7T172 67T104 266Q104 391 154 493T293 655T489 715Q615 715 682 641T750 440Q750 315 700 213T561 52T366 -7Q239 -7 172 67ZM456 73T520 120T621 249T658 428Q658 524 611 580T476 636Q399
636 335 589T234 459T196 280Q196 185 243 129T379 73Q456 73 520 120ZM371 950H463L531 771H462L371 950Z" />
<glyph unicode="&#xd3;" glyph-name="Oacute" horiz-adv-x="735" d="M239 -7T172 67T104 266Q104 391 154 493T293 655T489 715Q615 715 682 641T750 440Q750 315 700 213T561 52T366 -7Q239 -7 172 67ZM456 73T520 120T621 249T658 428Q658 524 611 580T476 636Q399
636 335 589T234 459T196 280Q196 185 243 129T379 73Q456 73 520 120ZM467 771L596 950H687L536 771H467Z" />
<glyph unicode="&#xd4;" glyph-name="Ocircumflex" horiz-adv-x="735" d="M239 -7T172 67T104 266Q104 391 154 493T293 655T489 715Q615 715 682 641T750 440Q750 315 700 213T561 52T366 -7Q239 -7 172 67ZM456 73T520 120T621 249T658 428Q658 524 611 580T476
636Q399 636 335 589T234 459T196 280Q196 185 243 129T379 73Q456 73 520 120ZM486 912H560L667 766H581L516 856H512L415 766H330L486 912Z" />
<glyph unicode="&#xd5;" glyph-name="Otilde" horiz-adv-x="735" d="M239 -7T172 67T104 266Q104 391 154 493T293 655T489 715Q615 715 682 641T750 440Q750 315 700 213T561 52T366 -7Q239 -7 172 67ZM456 73T520 120T621 249T658 428Q658 524 611 580T476 636Q399
636 335 589T234 459T196 280Q196 185 243 129T379 73Q456 73 520 120ZM352 843T381 873T460 904Q479 904 493 899T527 882Q542 873 553 869T576 865Q610 865 628 904H683Q673 866 644 836T566 806Q535 806 499 828Q482 837 472 841T450 845Q417 845 398 805H343Q352
843 381 873Z" />
<glyph unicode="&#xd6;" glyph-name="Odieresis" horiz-adv-x="735" d="M239 -7T172 67T104 266Q104 391 154 493T293 655T489 715Q615 715 682 641T750 440Q750 315 700 213T561 52T366 -7Q239 -7 172 67ZM456 73T520 120T621 249T658 428Q658 524 611 580T476
636Q399 636 335 589T234 459T196 280Q196 185 243 129T379 73Q456 73 520 120ZM581 798T569 811T556 844Q556 870 576 890T622 910Q643 910 656 897T670 864Q670 838 649 818T602 798Q581 798 569 811ZM385 798T373 811T360 844Q360 870 380 890T426 910Q447 910
460 897T474 864Q474 838 453 818T406 798Q385 798 373 811Z" />
<glyph unicode="&#xd7;" glyph-name="multiply" horiz-adv-x="554" d="M384 313L477 200L415 146L321 259L189 146L144 199L277 312L183 425L246 479L339 366L470 478L515 425L384 313Z" />
<glyph unicode="&#xd8;" glyph-name="Oslash" horiz-adv-x="743" d="M697 628Q754 558 754 440Q754 315 704 213T565 52T370 -7Q278 -7 215 34L152 -43H71L167 76Q107 147 107 266Q107 391 158 493T297 655T493 715Q587 715 651 671L709 743H790L697 628ZM199
206T230 153L593 600Q548 636 480 636Q403 636 339 589T237 460T199 280Q199 206 230 153ZM662 502T634 551L273 106Q319 73 383 73Q460 73 524 120T625 249T662 428Q662 502 634 551Z" />
<glyph unicode="&#xd9;" glyph-name="Ugrave" horiz-adv-x="684" d="M228 -9T169 50T110 221Q110 258 118 308L185 700H270L203 311Q196 267 196 240Q196 170 231 122T355 74Q469 74 519 148T586 311L653 700H738L671 308Q645 156 560 74T342 -9Q228 -9 169 50ZM347
950H439L507 771H438L347 950Z" />
<glyph unicode="&#xda;" glyph-name="Uacute" horiz-adv-x="684" d="M228 -9T169 50T110 221Q110 258 118 308L185 700H270L203 311Q196 267 196 240Q196 170 231 122T355 74Q469 74 519 148T586 311L653 700H738L671 308Q645 156 560 74T342 -9Q228 -9 169 50ZM443
771L572 950H663L512 771H443Z" />
<glyph unicode="&#xdb;" glyph-name="Ucircumflex" horiz-adv-x="684" d="M228 -9T169 50T110 221Q110 258 118 308L185 700H270L203 311Q196 267 196 240Q196 170 231 122T355 74Q469 74 519 148T586 311L653 700H738L671 308Q645 156 560 74T342 -9Q228 -9 169
50ZM462 912H536L643 766H557L492 856H488L391 766H306L462 912Z" />
<glyph unicode="&#xdc;" glyph-name="Udieresis" horiz-adv-x="684" d="M228 -9T169 50T110 221Q110 258 118 308L185 700H270L203 311Q196 267 196 240Q196 170 231 122T355 74Q469 74 519 148T586 311L653 700H738L671 308Q645 156 560 74T342 -9Q228 -9 169
50ZM557 798T545 811T532 844Q532 870 552 890T598 910Q619 910 632 897T646 864Q646 838 625 818T578 798Q557 798 545 811ZM361 798T349 811T336 844Q336 870 356 890T402 910Q423 910 436 897T450 864Q450 838 429 818T382 798Q361 798 349 811Z" />
<glyph unicode="&#xdd;" glyph-name="Yacute" horiz-adv-x="614" d="M262 -1L305 253L153 700H247L361 350H368L601 700H695L392 253L349 0L262 -1ZM404 771L533 950H624L473 771H404Z" />
<glyph unicode="&#xde;" glyph-name="Thorn" horiz-adv-x="593" d="M519 579T569 527T619 395Q619 322 585 260T485 159T333 121H180L159 0H75L194 700H278L257 579H411Q519 579 569 527ZM426 196T480 247T534 385Q534 448 493 474T388 501H244L192 196H335Q426
196 480 247Z" />
<glyph unicode="&#xdf;" glyph-name="germandbls" horiz-adv-x="569" d="M315 644T285 598T244 492L160 -3H74L157 486Q172 578 229 647T406 716Q501 716 546 674T591 565Q591 499 561 457T495 394T448 374L447 368Q456 368 481 355T529 312T551 232Q551 165 517
111T423 24T291 -8Q257 -8 232 -3L244 70Q266 66 291 66Q344 66 385 87T450 147T473 233Q473 290 432 314T333 339H276L286 405H346Q420 405 464 445T509 552Q509 597 480 620T398 644Q315 644 285 598Z" />
<glyph unicode="&#xe0;" glyph-name="agrave" horiz-adv-x="609" d="M171 -7T125 49T78 198Q78 292 115 370T215 495T355 541Q425 541 462 508T513 429H521L538 527H624L535 0H448L467 108H460Q379 -7 259 -7Q171 -7 125 49ZM353 67T398 101T469 193T496 321Q496
386 464 426T367 467Q311 467 266 434T194 342T168 213Q168 148 200 108T298 67Q353 67 398 101ZM272 777H364L432 598H363L272 777Z" />
<glyph unicode="&#xe1;" glyph-name="aacute" horiz-adv-x="609" d="M171 -7T125 49T78 198Q78 292 115 370T215 495T355 541Q425 541 462 508T513 429H521L538 527H624L535 0H448L467 108H460Q379 -7 259 -7Q171 -7 125 49ZM353 67T398 101T469 193T496 321Q496
386 464 426T367 467Q311 467 266 434T194 342T168 213Q168 148 200 108T298 67Q353 67 398 101ZM368 598L497 777H588L437 598H368Z" />
<glyph unicode="&#xe2;" glyph-name="acircumflex" horiz-adv-x="609" d="M171 -7T125 49T78 198Q78 292 115 370T215 495T355 541Q425 541 462 508T513 429H521L538 527H624L535 0H448L467 108H460Q379 -7 259 -7Q171 -7 125 49ZM353 67T398 101T469 193T496
321Q496 386 464 426T367 467Q311 467 266 434T194 342T168 213Q168 148 200 108T298 67Q353 67 398 101ZM387 739H461L568 593H482L417 683H413L316 593H231L387 739Z" />
<glyph unicode="&#xe3;" glyph-name="atilde" horiz-adv-x="609" d="M171 -7T125 49T78 198Q78 292 115 370T215 495T355 541Q425 541 462 508T513 429H521L538 527H624L535 0H448L467 108H460Q379 -7 259 -7Q171 -7 125 49ZM353 67T398 101T469 193T496 321Q496
386 464 426T367 467Q311 467 266 434T194 342T168 213Q168 148 200 108T298 67Q353 67 398 101ZM253 670T282 700T361 731Q380 731 394 726T428 709Q443 700 454 696T477 692Q511 692 529 731H584Q574 693 545 663T467 633Q436 633 400 655Q383 664 373 668T351
672Q318 672 299 632H244Q253 670 282 700Z" />
<glyph unicode="&#xe4;" glyph-name="adieresis" horiz-adv-x="609" d="M171 -7T125 49T78 198Q78 292 115 370T215 495T355 541Q425 541 462 508T513 429H521L538 527H624L535 0H448L467 108H460Q379 -7 259 -7Q171 -7 125 49ZM353 67T398 101T469 193T496 321Q496
386 464 426T367 467Q311 467 266 434T194 342T168 213Q168 148 200 108T298 67Q353 67 398 101ZM482 625T470 638T457 671Q457 697 477 717T523 737Q544 737 557 724T571 691Q571 665 550 645T503 625Q482 625 470 638ZM286 625T274 638T261 671Q261 697 281 717T327
737Q348 737 361 724T375 691Q375 665 354 645T307 625Q286 625 274 638Z" />
<glyph unicode="&#xe5;" glyph-name="aring" horiz-adv-x="609" d="M171 -7T125 49T78 198Q78 292 115 370T215 495T355 541Q425 541 462 508T513 429H521L538 527H624L535 0H448L467 108H460Q379 -7 259 -7Q171 -7 125 49ZM353 67T398 101T469 193T496 321Q496
386 464 426T367 467Q311 467 266 434T194 342T168 213Q168 148 200 108T298 67Q353 67 398 101ZM371 612T350 633T329 686Q329 711 343 734T381 772T431 787Q464 787 485 766T506 714Q506 688 492 665T453 627T402 612Q371 612 350 633ZM431 653T448 669T465 708Q465
725 454 736T425 747Q403 747 386 731T369 692Q369 675 380 664T409 653Q431 653 448 669Z" />
<glyph unicode="&#xe6;" glyph-name="ae" horiz-adv-x="941" d="M159 -7T117 27T74 121Q74 214 145 256T327 299L457 300L465 340Q467 354 467 365Q467 407 443 437T356 468Q298 468 260 440T208 372H126Q149 439 211 488T364 538Q432 538 474 508T526 419H531Q567
475 623 508T749 541Q855 541 897 478T940 328Q940 294 935 266L931 242H536L535 234Q533 214 533 205Q533 144 568 105T665 65Q716 65 757 90T825 161H910Q876 88 811 41T654 -7Q580 -7 533 28T469 122H464Q427 59 366 26T233 -7Q159 -7 117 27ZM855 300Q858 323
858 342Q858 409 825 439T736 470Q665 470 614 423T546 300H855ZM309 61T347 80T410 131T440 197L447 242H321Q260 242 211 221T161 135Q161 99 187 80T260 61Q309 61 347 80Z" />
<glyph unicode="&#xe7;" glyph-name="ccedilla" horiz-adv-x="563" d="M492 337Q493 395 462 431T368 468Q311 468 265 434T193 342T166 212Q166 146 199 106T299 66Q361 66 404 102T468 197H552Q527 117 466 60T313 -6L288 -55H314Q355 -55 376 -75T397 -126Q397
-158 379 -186T330 -230T259 -247Q227 -247 203 -237L213 -188Q241 -195 269 -195Q304 -195 326 -178T348 -134Q348 -114 333 -107T300 -100H217L218 -97L261 -6Q169 2 125 62T80 209Q80 236 82 249Q90 325 128 392T231 500T379 541Q448 541 493 513T558 438T576
337H492Z" />
<glyph unicode="&#xe8;" glyph-name="egrave" horiz-adv-x="565" d="M189 -3T135 59T81 219Q81 308 119 382T226 501T387 545Q482 545 527 503T572 401Q572 359 549 324T480 267T366 245H167L166 238Q164 220 164 212Q164 152 200 111T301 69Q351 69 392 95T457
165H543Q510 91 447 44T293 -3Q189 -3 135 59ZM367 306Q430 306 459 332T488 395Q488 428 462 452T376 477Q297 477 246 431T179 306H367ZM273 777H365L433 598H364L273 777Z" />
<glyph unicode="&#xe9;" glyph-name="eacute" horiz-adv-x="565" d="M189 -3T135 59T81 219Q81 308 119 382T226 501T387 545Q482 545 527 503T572 401Q572 359 549 324T480 267T366 245H167L166 238Q164 220 164 212Q164 152 200 111T301 69Q351 69 392 95T457
165H543Q510 91 447 44T293 -3Q189 -3 135 59ZM367 306Q430 306 459 332T488 395Q488 428 462 452T376 477Q297 477 246 431T179 306H367ZM369 598L498 777H589L438 598H369Z" />
<glyph unicode="&#xea;" glyph-name="ecircumflex" horiz-adv-x="565" d="M189 -3T135 59T81 219Q81 308 119 382T226 501T387 545Q482 545 527 503T572 401Q572 359 549 324T480 267T366 245H167L166 238Q164 220 164 212Q164 152 200 111T301 69Q351 69 392
95T457 165H543Q510 91 447 44T293 -3Q189 -3 135 59ZM367 306Q430 306 459 332T488 395Q488 428 462 452T376 477Q297 477 246 431T179 306H367ZM388 739H462L569 593H483L418 683H414L317 593H232L388 739Z" />
<glyph unicode="&#xeb;" glyph-name="edieresis" horiz-adv-x="565" d="M189 -3T135 59T81 219Q81 308 119 382T226 501T387 545Q482 545 527 503T572 401Q572 359 549 324T480 267T366 245H167L166 238Q164 220 164 212Q164 152 200 111T301 69Q351 69 392 95T457
165H543Q510 91 447 44T293 -3Q189 -3 135 59ZM367 306Q430 306 459 332T488 395Q488 428 462 452T376 477Q297 477 246 431T179 306H367ZM483 625T471 638T458 671Q458 697 478 717T524 737Q545 737 558 724T572 691Q572 665 551 645T504 625Q483 625 471 638ZM287
625T275 638T262 671Q262 697 282 717T328 737Q349 737 362 724T376 691Q376 665 355 645T308 625Q287 625 275 638Z" />
<glyph unicode="&#xec;" glyph-name="igrave" horiz-adv-x="250" d="M172 527H258L168 0H82L172 527ZM99 777H191L259 598H190L99 777Z" />
<glyph unicode="&#xed;" glyph-name="iacute" horiz-adv-x="250" d="M172 527H258L168 0H82L172 527ZM195 598L324 777H415L264 598H195Z" />
<glyph unicode="&#xee;" glyph-name="icircumflex" horiz-adv-x="250" d="M172 527H258L168 0H82L172 527ZM214 739H288L395 593H309L244 683H240L143 593H58L214 739Z" />
<glyph unicode="&#xef;" glyph-name="idieresis" horiz-adv-x="250" d="M172 527H258L168 0H82L172 527ZM309 625T297 638T284 671Q284 697 304 717T350 737Q371 737 384 724T398 691Q398 665 377 645T330 625Q309 625 297 638ZM113 625T101 638T88 671Q88 697
108 717T154 737Q175 737 188 724T202 691Q202 665 181 645T134 625Q113 625 101 638Z" />
<glyph unicode="&#xf0;" glyph-name="eth" horiz-adv-x="614" d="M567 694Q618 628 618 526Q618 491 610 441L582 273Q569 199 530 135T429 32T286 -7Q184 -7 133 54T82 210Q82 300 119 376T219 496T356 541Q427 541 464 509T516 432H541L543 447Q547 578 488
653L388 600L369 646L449 688Q421 708 392 716T341 724L352 790Q387 791 437 778T530 731L631 784L650 738L567 694ZM354 67T399 101T471 193T498 321Q498 387 466 427T368 468Q313 468 268 434T196 342T170 212Q170 147 202 107T298 67Q354 67 399 101Z" />
<glyph unicode="&#xf1;" glyph-name="ntilde" horiz-adv-x="612" d="M165 527H251L235 432H242Q271 478 321 509T436 541Q521 541 561 493T602 369Q602 345 597 315L544 0H458L510 304Q514 332 514 343Q514 402 481 433T391 464Q323 464 275 420T213 304L161 0H75L165
527ZM262 670T291 700T370 731Q389 731 403 726T437 709Q452 700 463 696T486 692Q520 692 538 731H593Q583 693 554 663T476 633Q445 633 409 655Q392 664 382 668T360 672Q327 672 308 632H253Q262 670 291 700Z" />
<glyph unicode="&#xf2;" glyph-name="ograve" horiz-adv-x="583" d="M182 -7T131 54T79 208Q79 298 119 374T227 496T377 541Q478 541 530 480T582 326Q582 236 542 160T434 38T284 -7Q182 -7 131 54ZM350 67T396 101T469 193T496 320Q496 386 462 427T365 468Q311
468 265 434T192 342T165 215Q165 149 199 108T296 67Q350 67 396 101ZM259 777H351L419 598H350L259 777Z" />
<glyph unicode="&#xf3;" glyph-name="oacute" horiz-adv-x="583" d="M182 -7T131 54T79 208Q79 298 119 374T227 496T377 541Q478 541 530 480T582 326Q582 236 542 160T434 38T284 -7Q182 -7 131 54ZM350 67T396 101T469 193T496 320Q496 386 462 427T365 468Q311
468 265 434T192 342T165 215Q165 149 199 108T296 67Q350 67 396 101ZM355 598L484 777H575L424 598H355Z" />
<glyph unicode="&#xf4;" glyph-name="ocircumflex" horiz-adv-x="583" d="M182 -7T131 54T79 208Q79 298 119 374T227 496T377 541Q478 541 530 480T582 326Q582 236 542 160T434 38T284 -7Q182 -7 131 54ZM350 67T396 101T469 193T496 320Q496 386 462 427T365
468Q311 468 265 434T192 342T165 215Q165 149 199 108T296 67Q350 67 396 101ZM374 739H448L555 593H469L404 683H400L303 593H218L374 739Z" />
<glyph unicode="&#xf5;" glyph-name="otilde" horiz-adv-x="583" d="M182 -7T131 54T79 208Q79 298 119 374T227 496T377 541Q478 541 530 480T582 326Q582 236 542 160T434 38T284 -7Q182 -7 131 54ZM350 67T396 101T469 193T496 320Q496 386 462 427T365 468Q311
468 265 434T192 342T165 215Q165 149 199 108T296 67Q350 67 396 101ZM240 670T269 700T348 731Q367 731 381 726T415 709Q430 700 441 696T464 692Q498 692 516 731H571Q561 693 532 663T454 633Q423 633 387 655Q370 664 360 668T338 672Q305 672 286 632H231Q240
670 269 700Z" />
<glyph unicode="&#xf6;" glyph-name="odieresis" horiz-adv-x="583" d="M182 -7T131 54T79 208Q79 298 119 374T227 496T377 541Q478 541 530 480T582 326Q582 236 542 160T434 38T284 -7Q182 -7 131 54ZM350 67T396 101T469 193T496 320Q496 386 462 427T365
468Q311 468 265 434T192 342T165 215Q165 149 199 108T296 67Q350 67 396 101ZM469 625T457 638T444 671Q444 697 464 717T510 737Q531 737 544 724T558 691Q558 665 537 645T490 625Q469 625 457 638ZM273 625T261 638T248 671Q248 697 268 717T314 737Q335 737
348 724T362 691Q362 665 341 645T294 625Q273 625 261 638Z" />
<glyph unicode="&#xf7;" glyph-name="divide" horiz-adv-x="600" d="M251 436T237 450T223 484Q223 511 244 531T291 552Q313 552 327 539T341 504Q341 477 320 457T272 436Q251 436 237 450ZM134 348H529L517 275H122L134 348ZM266 79T253 92T239 127Q239 154
259 174T307 195Q329 195 342 182T356 147Q356 120 335 100T287 79Q266 79 253 92Z" />
<glyph unicode="&#xf8;" glyph-name="oslash" horiz-adv-x="595" d="M529 481Q582 422 582 326Q582 236 542 160T434 39T284 -6Q233 -6 190 12L151 -41H84L144 42Q111 71 95 114T79 209Q79 299 119 375T227 496T377 541Q440 541 487 515L537 584H604L529 481ZM165
151T196 113L438 448Q409 468 365 468Q311 468 265 434T192 343T165 216Q165 151 196 113ZM496 370T476 407L238 80Q264 68 296 68Q350 68 396 102T469 194T496 321Q496 370 476 407Z" />
<glyph unicode="&#xf9;" glyph-name="ugrave" horiz-adv-x="602" d="M531 0H444L461 100H455Q427 54 378 23T265 -9Q183 -9 144 39T104 162Q104 187 109 217L162 527H248L197 228Q193 208 193 186Q193 128 224 98T310 68Q377 68 424 112T483 228L534 527H621L531
0ZM261 777H353L421 598H352L261 777Z" />
<glyph unicode="&#xfa;" glyph-name="uacute" horiz-adv-x="602" d="M531 0H444L461 100H455Q427 54 378 23T265 -9Q183 -9 144 39T104 162Q104 187 109 217L162 527H248L197 228Q193 208 193 186Q193 128 224 98T310 68Q377 68 424 112T483 228L534 527H621L531
0ZM357 598L486 777H577L426 598H357Z" />
<glyph unicode="&#xfb;" glyph-name="ucircumflex" horiz-adv-x="602" d="M531 0H444L461 100H455Q427 54 378 23T265 -9Q183 -9 144 39T104 162Q104 187 109 217L162 527H248L197 228Q193 208 193 186Q193 128 224 98T310 68Q377 68 424 112T483 228L534 527H621L531
0ZM376 739H450L557 593H471L406 683H402L305 593H220L376 739Z" />
<glyph unicode="&#xfc;" glyph-name="udieresis" horiz-adv-x="602" d="M531 0H444L461 100H455Q427 54 378 23T265 -9Q183 -9 144 39T104 162Q104 187 109 217L162 527H248L197 228Q193 208 193 186Q193 128 224 98T310 68Q377 68 424 112T483 228L534 527H621L531
0ZM471 625T459 638T446 671Q446 697 466 717T512 737Q533 737 546 724T560 691Q560 665 539 645T492 625Q471 625 459 638ZM275 625T263 638T250 671Q250 697 270 717T316 737Q337 737 350 724T364 691Q364 665 343 645T296 625Q275 625 263 638Z" />
<glyph unicode="&#xfd;" glyph-name="yacute" horiz-adv-x="491" d="M214 -109T195 -134T138 -182T49 -204Q21 -204 -9 -196L1 -132Q25 -136 43 -136Q75 -136 97 -124T135 -92T173 -33L207 26L97 527H187L264 121H270L494 527H584L235 -73Q214 -109 195 -134ZM317
598L446 777H537L386 598H317Z" />
<glyph unicode="&#xfe;" glyph-name="thorn" horiz-adv-x="622" d="M277 -7T239 26T186 106H178L121 -233H34L202 750H288L234 431H241Q270 476 318 508T438 541Q527 541 574 485T621 337Q621 242 585 164T485 39T347 -7Q277 -7 239 26ZM388 67T433 100T505 192T532
321Q532 386 500 426T402 466Q347 466 302 433T230 341T203 214Q203 148 235 108T332 67Q388 67 433 100Z" />
<glyph unicode="&#xff;" glyph-name="ydieresis" horiz-adv-x="491" d="M214 -109T195 -134T138 -182T49 -204Q21 -204 -9 -196L1 -132Q25 -136 43 -136Q75 -136 97 -124T135 -92T173 -33L207 26L97 527H187L264 121H270L494 527H584L235 -73Q214 -109 195 -134ZM431
625T419 638T406 671Q406 697 426 717T472 737Q493 737 506 724T520 691Q520 665 499 645T452 625Q431 625 419 638ZM235 625T223 638T210 671Q210 697 230 717T276 737Q297 737 310 724T324 691Q324 665 303 645T256 625Q235 625 223 638Z" />
<glyph unicode="&#x2013;" glyph-name="endash" horiz-adv-x="652" d="M174 348H597L585 276H162L174 348Z" />
<glyph unicode="&#x2014;" glyph-name="emdash" horiz-adv-x="769" d="M173 348H713L702 276H161L173 348Z" />
<glyph unicode="&#x2018;" glyph-name="quoteleft" horiz-adv-x="289" d="M264 708Q228 694 209 671T190 617Q190 602 197 598T218 593Q240 593 250 583T260 557Q260 527 240 508T188 488Q129 488 129 542Q129 550 131 562L137 598Q147 658 183 693T269 744L264 708Z" />
<glyph unicode="&#x2019;" glyph-name="quoteright" horiz-adv-x="266" d="M79 524Q115 538 134 561T153 615Q153 630 146 634T125 639Q103 639 93 649T83 675Q83 705 103 724T155 744Q214 744 214 690Q214 682 212 670L206 634Q196 574 160 539T74 488L79 524Z" />
<glyph unicode="&#x201a;" glyph-name="quotesinglbase" horiz-adv-x="299" d="M333 -124Q369 -110 388 -86T408 -30Q408 -15 401 -11T380 -6Q357 -6 347 4T336 31Q336 62 356 82T410 102Q471 102 471 46Q471 39 469 25L462 -11Q451 -73 415 -109T327 -161L333 -124Z" />
<glyph unicode="&#x201c;" glyph-name="quotedblleft" horiz-adv-x="562" d="M300 708Q264 694 245 671T226 617Q226 602 233 598T254 593Q276 593 286 583T297 557Q297 527 277 508T225 488Q165 488 165 542Q165 550 167 562L173 598Q184 658 219 693T306 744L300
708ZM502 708Q466 694 447 671T428 617Q428 602 435 598T456 593Q478 593 488 583T499 557Q499 527 479 508T427 488Q368 488 368 541Q368 550 370 562L376 598Q386 658 422 693T508 744L502 708Z" />
<glyph unicode="&#x201d;" glyph-name="quotedblright" horiz-adv-x="583" d="M176 524Q212 538 231 561T250 615Q250 630 243 634T222 639Q200 639 190 649T179 675Q179 705 199 724T251 744Q310 744 310 691Q310 682 308 670L302 634Q292 574 256 539T170 488L176
524ZM378 524Q414 538 433 561T452 615Q452 630 445 634T424 639Q402 639 392 649T381 675Q381 705 401 724T453 744Q513 744 513 690Q513 682 511 670L505 634Q494 574 459 539T372 488L378 524Z" />
<glyph unicode="&#x201e;" glyph-name="quotedblbase" horiz-adv-x="519" d="M79 -121Q115 -107 134 -84T153 -30Q153 -15 146 -11T125 -6Q103 -6 93 4T83 30Q83 60 103 79T155 99Q214 99 214 45Q214 37 212 25L206 -11Q196 -71 160 -106T74 -157L79 -121ZM301
-121Q337 -107 356 -84T375 -30Q375 -15 368 -11T347 -6Q325 -6 315 4T304 30Q304 60 324 79T376 99Q436 99 436 45Q436 37 434 25L428 -11Q417 -71 382 -106T295 -157L301 -121Z" />
<glyph unicode="&#x2022;" glyph-name="bullet" horiz-adv-x="393" d="M193 276T170 300T147 359Q147 389 163 415T206 458T263 474Q300 474 323 451T347 393Q347 363 331 336T287 293T229 276Q193 276 170 300Z" />
<glyph unicode="&#x2039;" glyph-name="guilsinglleft" horiz-adv-x="366" d="M346 107H256L93 316L328 527H418L186 316L346 107Z" />
<glyph unicode="&#x203a;" glyph-name="guilsinglright" horiz-adv-x="366" d="M128 527H218L382 316L147 107H57L289 316L128 527Z" />
</font>
</defs>
</svg>
